<svg xmlns="http://www.w3.org/2000/svg" xmlns:xlink="http://www.w3.org/1999/xlink" width="321.5" height="321.5"><path d="M213.4 133.3c20.5 11.8 20.5 31.2 0 43l-66.8 38.6c-20.5 11.8-37.3 2.2-37.3-21.5v-77.2c0-23.7 16.8-33.4 37.3-21.5l66.8 38.6" fill="#fff"/><defs><path id="A" d="M109.3 193.4v-77.2c0-23.7 16.8-33.3 37.3-21.5l66.8 38.6c20.5 11.8 20.5 31.2 0 43l-66.8 38.6c-5.9 3.4-11.6 5.1-16.6 5.1-12.2-.1-20.7-9.8-20.7-26.6M74.6 26.5c-161.1 11-38.2 352.1 149 250.3 207.5-112.8 46.6-251-127-251.1-7.3 0-14.7.3-22 .8"/></defs><clipPath id="B"><use xlink:href="#A"/></clipPath><linearGradient id="C" gradientUnits="userSpaceOnUse" x1="-326.539" y1="452.352" x2="-325.539" y2="452.352" gradientTransform="matrix(237.5881 215.9892 215.9892 -237.5881 -20102.6484 178065.4688)"><stop offset="0" stop-color="#6d7dbb"/><stop offset="1" stop-color="#ef5e7e"/></linearGradient><path d="M147.7-231.9l459 417.3-409.8 450.7-459-417.2z" clip-path="url(#B)" fill="url(#C)"/></svg>