<?xml version="1.0" encoding="UTF-8" standalone="no"?><!DOCTYPE svg PUBLIC "-//W3C//DTD SVG 1.1//EN" "http://www.w3.org/Graphics/SVG/1.1/DTD/svg11.dtd"><svg width="100%" height="100%" viewBox="0 0 512 512" version="1.1" xmlns="http://www.w3.org/2000/svg" xmlns:xlink="http://www.w3.org/1999/xlink" xml:space="preserve" xmlns:serif="http://www.serif.com/" style="fill-rule:evenodd;clip-rule:evenodd;stroke-linejoin:round;stroke-miterlimit:2;"><path d="M160,288l-16,0c-35.35,0 -64,28.7 -64,64.12l0,63.76c0,35.41 28.65,64.12 64,64.12l16,0c17.67,0 32,-14.36 32,-32.06l0,-127.88c0,-17.71 -14.33,-32.06 -32,-32.06Zm208,0l-16,0c-17.67,0 -32,14.35 -32,32.06l0,127.88c0,17.7 14.33,32.06 32,32.06l16,0c35.35,0 64,-28.71 64,-64.12l0,-63.76c0,-35.41 -28.65,-64.12 -64,-64.12Zm-112,-256c-143.09,0 -251.43,119.13 -256,256l0,112c0,8.84 7.16,16 16,16l16,0c8.84,0 16,-7.16 16,-16l0,-112c0,-114.67 93.33,-207.8 208,-207.82c114.67,0.02 208,93.15 208,207.82l0,112c0,8.84 7.16,16 16,16l16,0c8.84,0 16,-7.16 16,-16l0,-112c-4.57,-136.87 -112.91,-256 -256,-256Z" style="fill:#fff;fill-rule:nonzero;"/></svg>